ply
format ascii 1.0
comment Created by Open Asset Import Library - http://assimp.sf.net (v4.1.0)
element vertex 162
property float x
property float y
property float z
property float nx
property float ny
property float nz
element face 0
property list uchar int vertex_index
end_header
11.98907852172852 -2.108141422271729 33.6273307800293 1 1 1
-3.798154354095459 3.822094678878784 -8.875129699707031 1 1 1
4.514799118041992 1.516787171363831 1.639533877372742 1 1 1
33.64221954345703 -10.20296382904053 -377.3320922851563 1 1 1
1.852249622344971 5.784974098205566 12.49653053283691 1 1 1
0.7058510184288025 1.400785088539124 3.837975740432739 1 1 1
0.7253493070602417 1.379969239234924 3.853073835372925 1 1 1
0.7415774464607239 1.429705739021301 3.748352527618408 1 1 1
0.7828946113586426 1.262399792671204 3.848312377929688 1 1 1
0.7563933134078979 1.490154623985291 3.574853897094727 1 1 1
0.7920516729354858 1.462226271629333 3.601528167724609 1 1 1
1.128454446792603 2.666732549667358 5.089575290679932 1 1 1
0.7312058210372925 1.817168593406677 3.280292272567749 1 1 1
1.09702742099762 2.718649387359619 4.909101009368896 1 1 1
1.241836428642273 2.241665363311768 4.410521030426025 1 1 1
7.913789749145508 10.16460704803467 27.30510520935059 1 1 1
1.758577704429626 2.17674732208252 6.024416923522949 1 1 1
4.854416370391846 7.270277976989746 16.54787063598633 1 1 1
1.238143444061279 2.830405712127686 4.279941082000732 1 1 1
1.238143444061279 2.830405712127686 4.279941082000732 1 1 1
9.921378135681152 10.05581283569336 29.28696632385254 1 1 1
0.4831611812114716 -1.129728317260742 -2.035648107528687 1 1 1
2.570540904998779 5.048642635345459 7.845155715942383 1 1 1
1.945959568023682 2.118036270141602 5.36269474029541 1 1 1
0.4586918950080872 -1.115978717803955 -2.036133289337158 1 1 1
0.4520310163497925 -1.122507095336914 -2.033150434494019 1 1 1
8.064068794250488 8.638175010681152 21.45569801330566 1 1 1
3.048714637756348 11.47130393981934 -16.55931091308594 1 1 1
8.136462211608887 8.657843589782715 21.39743232727051 1 1 1
1.864680290222168 2.831172704696655 4.958636283874512 1 1 1
9.440103530883789 9.45119571685791 24.43854904174805 1 1 1
5.197217464447021 6.545114040374756 13.33327388763428 1 1 1
1.625540375709534 2.537745237350464 4.210698127746582 1 1 1
3.052508592605591 11.46735858917236 -16.55855369567871 1 1 1
1.921710848808289 2.169054508209229 4.819360256195068 1 1 1
1.770135521888733 2.356866836547852 4.452248573303223 1 1 1
5.695311546325684 6.836189270019531 14.21463680267334 1 1 1
5.464499473571777 6.726688385009766 13.6178617477417 1 1 1
1.638097882270813 2.61703085899353 4.066952705383301 1 1 1
0.4010797441005707 -1.085330128669739 -2.036752462387085 1 1 1
0.4010797441005707 -1.085330128669739 -2.036752462387085 1 1 1
0.3888364434242249 -1.076793193817139 -2.037497758865356 1 1 1
0.3677055239677429 -1.061762571334839 -2.038873672485352 1 1 1
0.3399546146392822 -1.042564034461975 -2.040517568588257 1 1 1
0.3399546146392822 -1.042564034461975 -2.040517568588257 1 1 1
-1.529711723327637 8.644692420959473 -4.696171760559082 1 1 1
0.3331919014453888 -1.03824520111084 -2.040808916091919 1 1 1
3.069761276245117 11.45030498504639 -16.55593490600586 1 1 1
0.3268417418003082 -1.033868551254272 -2.041180372238159 1 1 1
-0.02533170580863953 -0.08409588038921356 1.354144215583801 1 1 1
-5.489617347717285 -5.284172534942627 -10.70536231994629 1 1 1
5.299063205718994 6.029016017913818 10.37350940704346 1 1 1
5.299063205718994 6.029016017913818 10.37350940704346 1 1 1
6.497167587280273 6.61354923248291 12.16896343231201 1 1 1
18.02047920227051 10.49913501739502 31.54524612426758 1 1 1
4.473615169525146 5.521989822387695 7.906535625457764 1 1 1
0.2519002258777618 -0.9716408252716064 -2.048765182495117 1 1 1
15.73261737823486 10.57494449615479 26.37719917297363 1 1 1
5.356173038482666 5.770227909088135 9.127798080444336 1 1 1
5.356173038482666 5.770227909088135 9.127798080444336 1 1 1
25.0680980682373 14.88687705993652 41.4710807800293 1 1 1
5.715928554534912 5.779483318328857 9.565892219543457 1 1 1
13.22808933258057 9.103747367858887 21.71203231811523 1 1 1
19.34006118774414 11.90600395202637 31.59264183044434 1 1 1
19.34006118774414 11.90600395202637 31.59264183044434 1 1 1
0.2235320210456848 -0.9544755220413208 -2.049700736999512 1 1 1
0.2195552736520767 -0.9653007984161377 -2.045819282531738 1 1 1
8.812603950500488 7.055802345275879 14.44936561584473 1 1 1
7.69722318649292 3.767091512680054 8.882087707519531 1 1 1
14.02543640136719 19.57558441162109 -32.27410125732422 1 1 1
4.758917331695557 8.855895042419434 -16.69654083251953 1 1 1
-2.957988500595093 -7.872111320495605 -4.088144302368164 1 1 1
4.523311614990234 8.057101249694824 -12.34578800201416 1 1 1
5.664810180664063 6.426161289215088 -12.88644886016846 1 1 1
5.599268913269043 6.394287109375 -12.37517547607422 1 1 1
5.108697891235352 6.74033784866333 -10.79903030395508 1 1 1
-5.905795574188232 -14.96484184265137 -7.067069053649902 1 1 1
5.124491691589355 6.410392284393311 -9.644623756408691 1 1 1
6.093436717987061 4.418429374694824 -7.871782302856445 1 1 1
6.202161312103271 4.263757228851318 -7.927990436553955 1 1 1
-1.908915758132935 7.240080833435059 -4.213264465332031 1 1 1
-2.154208660125732 8.076837539672852 -4.430055618286133 1 1 1
-3.0395188331604 13.13077545166016 -5.829167366027832 1 1 1
-1.53328800201416 7.843576908111572 -4.452747821807861 1 1 1
-2.111705780029297 11.25609970092773 -5.400357723236084 1 1 1
-2.210148572921753 12.58086109161377 -5.787199020385742 1 1 1
3.628609418869019 16.54625701904297 10.51310539245605 1 1 1
31.80466842651367 128.0879058837891 69.64974212646484 1 1 1
3.481603145599365 14.63656997680664 10.06569480895996 1 1 1
8.76698112487793 39.5482063293457 20.33371734619141 1 1 1
3.280436515808105 12.41179275512695 8.898493766784668 1 1 1
-5.487154006958008 -12.69542026519775 -8.261841773986816 1 1 1
7.964069843292236 31.78734397888184 15.77272701263428 1 1 1
-5.106650829315186 -12.42174434661865 -7.076547145843506 1 1 1
-5.978293895721436 -18.97892379760742 -9.201225280761719 1 1 1
-14.67824935913086 -42.56243133544922 -22.79170227050781 1 1 1
-4.337241649627686 -11.21142292022705 -5.824059009552002 1 1 1
-4.066296577453613 -10.5274600982666 -5.321101665496826 1 1 1
-5.437989711761475 -11.87307357788086 -7.197271823883057 1 1 1
-5.031672954559326 -15.71936511993408 -7.410733699798584 1 1 1
20.03035736083984 49.69010543823242 29.20349311828613 1 1 1
5.045845985412598 1.45770001411438 9.037491798400879 1 1 1
-5.051331996917725 -13.36875915527344 -6.187751293182373 1 1 1
-13.04641437530518 -38.33705902099609 -17.60154151916504 1 1 1
-10.90396976470947 -25.38022422790527 -12.70867156982422 1 1 1
-5.586187839508057 -14.165602684021 -6.648656368255615 1 1 1
-13.1520528793335 -30.13612747192383 -15.25133419036865 1 1 1
-11.50380706787109 -26.62200546264648 -13.35106658935547 1 1 1
9.744049072265625 26.39453506469727 11.70004177093506 1 1 1
41.74612808227539 96.63515472412109 44.50965881347656 1 1 1
34.77253341674805 79.45797729492188 36.57579803466797 1 1 1
-26.12000846862793 -61.55188751220703 -28.12542152404785 1 1 1
2.886360883712769 6.576043128967285 2.607152223587036 1 1 1
-18.94264030456543 -43.30361557006836 -19.67783164978027 1 1 1
2.834428787231445 5.982592582702637 2.211416482925415 1 1 1
3.083859443664551 6.591856479644775 2.545572519302368 1 1 1
5.022238254547119 7.897832870483398 2.871605157852173 1 1 1
0.5285761952400208 -0.08732340484857559 2.095197439193726 1 1 1
0.6759853363037109 0.09595585614442825 2.391664028167725 1 1 1
0.6131168603897095 0.2870767712593079 2.407793283462524 1 1 1
0.5620356202125549 -0.1042743101716042 2.133059501647949 1 1 1
0.4882027208805084 -0.04491207748651505 2.064260482788086 1 1 1
0.7863926887512207 -0.1261522620916367 2.426621437072754 1 1 1
0.7863926887512207 -0.1261522620916367 2.426621437072754 1 1 1
0.4372789859771729 -0.01274704001843929 2.012269735336304 1 1 1
0.2830560207366943 0.128487303853035 1.877557039260864 1 1 1
0.2640734314918518 0.1269516497850418 1.851103544235229 1 1 1
0.5318829417228699 -0.03639017418026924 2.129619359970093 1 1 1
0.2540474832057953 -0.04878748580813408 1.746679663658142 1 1 1
0.2480918616056442 -0.06145821139216423 1.732129454612732 1 1 1
0.2182808220386505 -0.008206801488995552 1.719347715377808 1 1 1
0.2222695648670197 -0.0442066602408886 1.706261038780212 1 1 1
0.6564903855323792 -0.3660181164741516 2.130731105804443 1 1 1
0.3067022562026978 -0.1994820386171341 1.74267566204071 1 1 1
0.2607110738754272 -0.1266370713710785 1.71777617931366 1 1 1
0.0846996083855629 -0.1812218725681305 1.452706217765808 1 1 1
0.08279462158679962 0.1406473964452744 1.614534735679626 1 1 1
0.149297684431076 -0.1594978123903275 1.551969170570374 1 1 1
-0.06925967335700989 0.1593958139419556 1.418466567993164 1 1 1
-0.06256326287984848 0.1484911739826202 1.4219571352005 1 1 1
0.0997224748134613 -0.02225800231099129 1.554637789726257 1 1 1
0.09104204177856445 -0.1754599362611771 1.466205596923828 1 1 1
0.06883709132671356 0.03609736636281013 1.542845487594604 1 1 1
-0.0692342221736908 0.03586371243000031 1.355614066123962 1 1 1
-0.09878877550363541 0.1763013601303101 1.38746964931488 1 1 1
-0.06899255514144897 0.02981318905949593 1.352861166000366 1 1 1
-0.07239175587892532 0.04630270600318909 1.35664165019989 1 1 1
-0.04788776859641075 -0.09941359609365463 1.31653618812561 1 1 1
-0.07340893149375916 0.01523319538682699 1.339590668678284 1 1 1
-0.05830890685319901 -0.1322787553071976 1.286522626876831 1 1 1
-0.1217644140124321 0.1701579540967941 1.353401064872742 1 1 1
-4.217251300811768 -1.130348920822144 -2.125504970550537 1 1 1
-4.246993541717529 -1.053756594657898 -2.123005628585815 1 1 1
-4.264305591583252 -1.25002658367157 -2.277286767959595 1 1 1
-4.336814880371094 -1.052634239196777 -2.264284610748291 1 1 1
-4.342422962188721 -1.048141717910767 -2.270247220993042 1 1 1
5.999286651611328 4.203536987304688 7.231759548187256 1 1 1
-7.862607955932617 -3.804686069488525 -8.6597900390625 1 1 1
72.64246368408203 20.48972702026367 44.26932144165039 1 1 1
76.77193450927734 19.12676620483398 47.08181381225586 1 1 1
78.27189636230469 18.45346260070801 48.1812629699707 1 1 1
7.180139541625977 0.8495526909828186 9.396945953369141 1 1 1
